<svg width="100" height="100" viewBox="0 0 100 100" fill="none" xmlns="http://www.w3.org/2000/svg">
<path d="M88.1667 50.5263C88.1667 71.8821 71.0444 89.1316 50 89.1316C28.9556 89.1316 11.8334 71.8821 11.8334 50.5263C11.8334 29.1706 28.9556 11.9211 50 11.9211C71.0444 11.9211 88.1667 29.1706 88.1667 50.5263Z" stroke="#FB923C" stroke-width="7"/>
<path d="M83.4167 50.5263C83.4167 69.2075 68.4359 84.3158 50 84.3158C31.5642 84.3158 16.5834 69.2075 16.5834 50.5263C16.5834 31.8451 31.5642 16.7368 50 16.7368C68.4359 16.7368 83.4167 31.8451 83.4167 50.5263Z" stroke="white" stroke-width="4"/>
<rect x="41.6666" width="16.6667" height="9.47368" fill="#FB923C"/>
<rect x="41.6666" y="90.5263" width="16.6667" height="9.47368" fill="#FB923C"/>
<rect width="16.7546" height="9.42447" transform="matrix(0.703395 0.710799 -0.703395 0.710799 14.9625 72.6316)" fill="#FB923C"/>
<rect width="16.7546" height="9.42447" transform="matrix(0.703395 -0.710799 0.703395 0.710799 72.9166 85.5934)" fill="#FB923C"/>
<rect width="16.7546" height="9.42447" transform="matrix(0.703395 -0.710799 0.703395 0.710799 8.33337 22.4355)" fill="#FB923C"/>
<rect width="16.7546" height="9.42447" transform="matrix(0.703395 0.710799 -0.703395 0.710799 80.5875 10.5263)" fill="#FB923C"/>
<rect x="100" y="42.1053" width="16.8421" height="9.375" transform="rotate(90 100 42.1053)" fill="#FB923C"/>
<rect x="9.375" y="43.1579" width="16.8421" height="9.375" transform="rotate(90 9.375 43.1579)" fill="#FB923C"/>
<rect width="4.18865" height="3.14149" transform="matrix(0.703395 -0.710799 0.703395 0.710799 78.125 81.9247)" fill="#1E1E1E"/>
<rect x="47.9166" y="91.579" width="4.16667" height="3.15789" fill="#1E1E1E"/>
<rect width="4.18865" height="3.14149" transform="matrix(0.703395 0.710799 -0.703395 0.710799 18.8763 77.8947)" fill="#1E1E1E"/>
<rect x="47.9166" y="6.3158" width="4.16667" height="3.15789" fill="#1E1E1E"/>
<rect width="4.18865" height="3.14149" transform="matrix(0.703395 0.710799 -0.703395 0.710799 81.3763 18.9474)" fill="#1E1E1E"/>
<rect width="4.18865" height="3.14149" transform="matrix(0.703395 -0.710799 0.703395 0.710799 16.6666 21.9247)" fill="#1E1E1E"/>
<rect x="90.625" y="52.6316" width="4.21053" height="3.125" transform="rotate(-90 90.625 52.6316)" fill="#1E1E1E"/>
<rect x="6.25" y="53.6842" width="4.21053" height="3.125" transform="rotate(-90 6.25 53.6842)" fill="#1E1E1E"/>
<path d="M26.0416 34.2105H32.5183L35.9375 47.3684L38.8541 27.3684H60.4166V35.2631" stroke="white" stroke-width="3"/>
<path d="M49.5221 39.1537L51.6021 35.9537H54.6821L51.0821 41.0137C51.8821 42.0137 52.6088 42.987 53.2621 43.9337C53.9154 44.8804 54.4354 45.727 54.8221 46.4737H51.6221C51.5154 46.2737 51.3821 46.027 51.2221 45.7337C51.0621 45.427 50.8821 45.1137 50.6821 44.7937C50.4821 44.4604 50.2688 44.1337 50.0421 43.8137C49.8288 43.4804 49.6154 43.1804 49.4021 42.9137C49.2021 43.167 48.9954 43.447 48.7821 43.7537C48.5821 44.0604 48.3888 44.3737 48.2021 44.6937C48.0154 45.0004 47.8288 45.307 47.6421 45.6137C47.4688 45.9204 47.3154 46.207 47.1821 46.4737H44.1421C44.3021 46.1404 44.5221 45.747 44.8021 45.2937C45.0821 44.8404 45.3821 44.3737 45.7021 43.8937C46.0354 43.4004 46.3821 42.9137 46.7421 42.4337C47.1021 41.9404 47.4554 41.4804 47.8021 41.0537C47.2021 40.2137 46.6021 39.367 46.0021 38.5137C45.4021 37.647 44.8088 36.7937 44.2221 35.9537H47.4421L49.5221 39.1537Z" fill="white"/>
<path d="M73.4513 56.2368C72.679 68.0802 62.8282 77.4473 50.7895 77.4473H49.2105C37.1718 77.4473 27.321 68.0802 26.5487 56.2368H73.4513Z" stroke="white" stroke-width="3"/>
<path d="M35.4006 64.78H38.7406V61.08H41.4606V64.78H44.8006V67.28H41.4606V70.98H38.7406V67.28H35.4006V64.78Z" fill="white"/>
<path d="M54.6714 66.0326H64.0714V68.5326H54.6714V66.0326ZM54.6714 61.6526H64.0714V64.1526H54.6714V61.6526Z" fill="white"/>
<path d="M50 57.8947V75.7895" stroke="white" stroke-width="4"/>
<g filter="url(#filter0_d_29_41)">
<path d="M66.2026 38.0843L85.7218 22.0127C86.4899 21.4082 87.4616 21.1317 88.429 21.2423C89.3963 21.3529 90.2823 21.8419 90.8973 22.6044C91.5123 23.367 91.8074 24.3426 91.7194 25.3223C91.6314 26.3021 91.1672 27.208 90.4264 27.8462L70.9043 43.9175C70.459 44.2842 69.9162 44.5095 69.3443 44.5649L63.5416 45.1278L65.2599 39.4973C65.4292 38.9426 65.7573 38.4509 66.2026 38.0843Z" stroke="white" stroke-width="2" stroke-linecap="round" stroke-linejoin="round"/>
<path d="M82.3284 25.6379L86.2271 30.4735" stroke="white" stroke-width="2"/>
</g>
<defs>
<filter id="filter0_d_29_41" x="57.5419" y="19.2182" width="40.1925" height="35.9099" filterUnits="userSpaceOnUse" color-interpolation-filters="sRGB">
<feFlood flood-opacity="0" result="BackgroundImageFix"/>
<feColorMatrix in="SourceAlpha" type="matrix" values="0 0 0 0 0 0 0 0 0 0 0 0 0 0 0 0 0 0 127 0" result="hardAlpha"/>
<feOffset dy="4"/>
<feGaussianBlur stdDeviation="2.5"/>
<feComposite in2="hardAlpha" operator="out"/>
<feColorMatrix type="matrix" values="0 0 0 0 0 0 0 0 0 0 0 0 0 0 0 0 0 0 0.38 0"/>
<feBlend mode="normal" in2="BackgroundImageFix" result="effect1_dropShadow_29_41"/>
<feBlend mode="normal" in="SourceGraphic" in2="effect1_dropShadow_29_41" result="shape"/>
</filter>
</defs>
</svg>
